<?xml version="1.0" encoding="UTF-8"?>
<svg version="1.1" xmlns="http://www.w3.org/2000/svg" width="240" height="288">
<path d="M0 0 C79.2 0 158.4 0 240 0 C240 95.04 240 190.08 240 288 C160.8 288 81.6 288 0 288 C0 192.96 0 97.92 0 0 Z " fill="#242424" transform="translate(0,0)"/>
<path d="M0 0 C7.58759971 5.24767576 14.01398467 12.8619525 20.51147461 19.38110352 C22.45377265 21.32881803 24.4014314 23.2710593 26.34960938 25.21289062 C27.58625875 26.45019983 28.82259842 27.68781868 30.05859375 28.92578125 C30.9319059 29.79605705 30.9319059 29.79605705 31.82286072 30.68391418 C36.73883175 35.62886669 36.73883175 35.62886669 37.5 39.625 C36.3343107 47.49340276 26.99622079 54.15231424 21.54199219 59.60327148 C20.72648895 60.42213333 19.91098572 61.24099518 19.07077026 62.08467102 C16.3987619 64.76610989 13.72306294 67.44382669 11.046875 70.12109375 C9.1806924 71.99049173 7.31458432 73.85996409 5.44854736 75.72950745 C1.55035519 79.63406698 -2.35025766 83.53619737 -6.25195312 87.43725586 C-10.76174746 91.94644684 -15.26590409 96.46121622 -19.7675221 100.97856849 C-24.10885946 105.33453716 -28.45569123 109.68498279 -32.80464935 114.03334236 C-34.65150135 115.88137683 -36.4967265 117.73103856 -38.34030914 119.58233452 C-40.90869704 122.1604701 -43.48328288 124.73225193 -46.05957031 127.30249023 C-46.82324921 128.07178864 -47.5869281 128.84108704 -48.37374878 129.63369751 C-49.07454559 130.33029984 -49.77534241 131.02690216 -50.49737549 131.74461365 C-51.40875715 132.65681246 -51.40875715 132.65681246 -52.33855057 133.58743954 C-56.067081 136.75742749 -60.62084356 136.19455092 -65.24609375 136.23828125 C-66.05361588 136.246353 -66.861138 136.25442474 -67.69313049 136.26274109 C-69.40029769 136.27656151 -71.10749228 136.28729279 -72.81469727 136.29516602 C-75.42452089 136.31241422 -78.03308875 136.35632056 -80.64257812 136.40039062 C-82.30207403 136.41051506 -83.96158068 136.41903194 -85.62109375 136.42578125 C-86.40036728 136.44328934 -87.17964081 136.46079742 -87.98252869 136.47883606 C-91.57345729 136.46446037 -93.57637439 136.32731077 -96.46118164 134.09838867 C-100.51065927 128.57637372 -99.46039751 121.21001895 -99.56982422 114.59033203 C-99.6063133 112.87728256 -99.66071285 111.16451158 -99.73388672 109.45263672 C-99.83842155 106.96740552 -99.88194042 104.48710416 -99.9140625 102 C-99.95737701 101.24855713 -100.00069153 100.49711426 -100.0453186 99.72290039 C-100.02362937 93.47845831 -97.36864798 90.41122708 -93.11233521 86.05957031 C-92.6284647 85.58459106 -92.14459419 85.10961182 -91.64606094 84.62023926 C-89.76748402 82.77113149 -87.92134189 80.89243548 -86.07540894 79.01074219 C-81.24772889 74.10385926 -76.37844727 69.23918829 -71.5078125 64.375 C-69.71167653 62.57818953 -67.91568895 60.78123072 -66.11984253 58.98413086 C-62.3744858 55.23730667 -58.62739028 51.49223027 -54.87890625 47.74853516 C-50.54899618 43.42409302 -46.22273764 39.09602283 -41.89830315 34.76610565 C-37.72144847 30.58416855 -33.54178932 26.40504319 -29.36092758 22.22711182 C-27.5875289 20.4543806 -25.81487381 18.6809052 -24.04297256 16.90667725 C-21.57548965 14.43666286 -19.10483819 11.96986272 -16.63330078 9.50390625 C-15.90081619 8.76939743 -15.1683316 8.03488861 -14.41365051 7.27812195 C-13.74098648 6.60827774 -13.06832245 5.93843353 -12.37527466 5.24829102 C-11.79240755 4.66580093 -11.20954044 4.08331085 -10.6090107 3.48316956 C-7.02254384 0.17720119 -4.80397973 -0.81577014 0 0 Z " fill="#ECF4FB" transform="translate(139,32)"/>
<path d="M0 0 C79.2 0 158.4 0 240 0 C240 95.04 240 190.08 240 288 C160.8 288 81.6 288 0 288 C0 192.96 0 97.92 0 0 Z M5 13 C3.83856907 15.32286186 3.872723 16.65665888 3.86857224 19.24300003 C3.86473109 20.1385146 3.86088995 21.03402916 3.8569324 21.95668054 C3.85779888 22.94673585 3.85866537 23.93679116 3.85955811 24.95684814 C3.85658698 26.00379656 3.85361586 27.05074497 3.8505547 28.12941909 C3.84183724 31.66083161 3.84035689 35.19221036 3.83886719 38.72363281 C3.83424115 41.24618096 3.82921678 43.7687284 3.82382202 46.29127502 C3.81067493 53.16117534 3.80421206 60.03106447 3.79981136 66.90097523 C3.79705046 71.18961778 3.79281335 75.47825808 3.78830719 79.76689911 C3.77611237 91.63770023 3.76581393 103.50849954 3.7624321 115.37930679 C3.76221253 116.13940327 3.76199297 116.89949975 3.76176675 117.68262945 C3.76154847 118.44456213 3.76133019 119.20649481 3.7611053 119.99151635 C3.76066183 121.53552262 3.76021527 123.07952889 3.75976562 124.62353516 C3.7595442 125.38941829 3.75932277 126.15530142 3.75909463 126.94439313 C3.75514715 139.35273726 3.73769565 151.76102265 3.7144061 164.1693441 C3.69069551 176.90467849 3.67823036 189.6399834 3.67706418 202.37534022 C3.67614718 209.52739201 3.67038873 216.67936729 3.65224457 223.83139801 C3.63523864 230.55857068 3.63358879 237.28557328 3.64238358 244.0127697 C3.64315613 246.48391801 3.63878269 248.955074 3.62892532 251.42620277 C3.61626988 254.79604893 3.62204815 258.16537516 3.63250732 261.53521729 C3.62445092 262.51634971 3.61639452 263.49748213 3.60809398 264.50834584 C3.65161814 270.49187419 4.2677131 275.07304635 8.53515625 279.64453125 C13.75809897 283.63854627 16.6787086 284.14740563 23.13458252 284.14044189 C23.98552042 284.14341302 24.83645832 284.14638414 25.71318221 284.1494453 C28.58125888 284.15815743 31.44929394 284.15964267 34.31738281 284.16113281 C36.36703074 284.16575925 38.4166778 284.17078367 40.46632385 284.17617798 C46.04700849 284.18932171 51.62768109 284.1957509 57.20837879 284.20018864 C60.69297511 284.20311647 64.17756812 284.20722075 67.66216278 284.21169281 C78.55873355 284.22537357 89.45529678 284.23503712 100.35187554 284.2388947 C112.94107571 284.2433756 125.53016731 284.26092262 138.11933446 284.2898953 C147.84253261 284.31149727 157.56570018 284.32159821 167.28892207 284.32293582 C173.09959121 284.32398501 178.91015838 284.32991684 184.72080231 284.34775543 C190.18726887 284.36421019 195.65355652 284.36640419 201.12003899 284.35761642 C203.12677171 284.35684463 205.13351394 284.36120743 207.14022255 284.37107468 C209.87952334 284.38375438 212.61818674 284.37793896 215.35748291 284.36749268 C216.15184982 284.37554908 216.94621672 284.38360548 217.76465535 284.39190602 C223.23870843 284.34307554 227.45693347 283.31956662 231.64453125 279.5 C234.78804403 275.46284646 236.12252599 272.71010211 236.13422108 267.63395214 C236.13867892 266.73644653 236.14313676 265.83894091 236.14772969 264.91423815 C236.14754533 263.92709569 236.14736097 262.93995322 236.14717102 261.92289734 C236.15084771 260.8750945 236.1545244 259.82729167 236.1583125 258.74773723 C236.16936893 255.21943386 236.17319648 251.69115992 236.17700195 248.1628418 C236.18326503 245.64014593 236.18991169 243.117451 236.19691467 240.59475708 C236.21615459 233.01267548 236.22674397 225.43059905 236.23564246 217.84849927 C236.24002566 214.27840651 236.24539233 210.70831523 236.25063133 207.13822365 C236.26764201 195.27167284 236.28213689 183.40512295 236.28938007 171.53856182 C236.29128998 168.459383 236.29321031 165.38020418 236.29516602 162.30102539 C236.29564976 161.53570776 236.2961335 160.77039013 236.2966319 159.98188106 C236.30493491 147.58004802 236.33027709 135.17831134 236.36274669 122.77652039 C236.39580631 110.04567479 236.41382778 97.3148782 236.41702431 84.58398944 C236.41919028 77.43527774 236.42795164 70.28670662 236.45348549 63.13803673 C236.47744389 56.41492079 236.48102513 49.69210186 236.47072411 42.96893692 C236.47022711 40.49939572 236.47659551 38.02984231 236.49028015 35.56033897 C236.50790038 32.19260404 236.50094082 28.82578821 236.48774719 25.45805359 C236.49871644 24.47760328 236.50968568 23.49715298 236.52098733 22.48699206 C236.46715991 16.80791828 235.83401478 13.48433295 232 9 C226.70876196 4.2249803 222.64863221 3.8512388 215.74516296 3.85282898 C214.89337064 3.84915229 214.04157832 3.8454756 213.16397411 3.8416875 C210.29900729 3.83064127 207.43407673 3.82680525 204.5690918 3.82299805 C202.51929611 3.81673418 200.46950155 3.81008745 198.41970825 3.80308533 C192.84321855 3.78567033 187.26673743 3.77512252 181.69022727 3.7668798 C178.20780332 3.76173144 174.72538204 3.75565568 171.24295998 3.74936867 C160.35173406 3.73031649 149.46051494 3.71608455 138.56927556 3.7077567 C125.98854348 3.69797861 113.40798709 3.6716442 100.82731694 3.63125581 C91.10834562 3.60112273 81.38942474 3.58629055 71.67040759 3.58297569 C65.86306997 3.5806223 60.05592003 3.5716241 54.24863243 3.54651451 C48.78621907 3.52327754 43.32411756 3.51898301 37.86166763 3.52927589 C35.85654095 3.5297724 33.85139915 3.52341819 31.8463192 3.50971985 C29.10909985 3.49206547 26.37300751 3.49907517 23.63578796 3.51225281 C22.84210318 3.50128356 22.04841839 3.49031432 21.23068255 3.47901267 C13.69000928 3.56667483 9.34815855 6.88036945 5 13 Z " fill="#EEF6FD" transform="translate(0,0)"/>
<path d="M0 0 C3.3247945 1.57588004 5.51631617 3.2817149 8.109375 5.9140625 C9.24052734 7.05488281 9.24052734 7.05488281 10.39453125 8.21875 C11.17183594 9.0128125 11.94914062 9.806875 12.75 10.625 C13.93916016 11.82769531 13.93916016 11.82769531 15.15234375 13.0546875 C17.10614493 15.03202846 19.05512103 17.01388909 21 19 C19.66864545 21.93360446 18.1988213 24.07813766 15.97758484 26.40423584 C15.35729401 27.05762436 14.73700317 27.71101288 14.09791565 28.38420105 C13.41809128 29.08982681 12.73826691 29.79545258 12.0378418 30.52246094 C11.32025696 31.27406998 10.60267212 32.02567902 9.86334229 32.80006409 C3.22746143 39.73089655 -3.47454658 46.59829343 -10.19486713 53.44718552 C-14.7037622 58.04311449 -19.19005348 62.65691281 -23.62768555 67.32177734 C-27.92757451 71.84101478 -32.27786694 76.3056207 -36.66744041 80.73773956 C-38.32390594 82.42774898 -39.96222489 84.13576102 -41.58071327 85.86217499 C-55.56992387 100.73818511 -55.56992387 100.73818511 -66.78872204 101.12709427 C-70.9233116 101.00804593 -74.90810094 100.6111052 -79 100 C-80.40531313 90.94625532 -81.55665345 81.85686173 -75.93334961 74.0562439 C-71.57255775 68.88013255 -66.653514 64.28709304 -61.71875 59.66796875 C-59.94298402 57.93144061 -58.17184916 56.19016527 -56.40515137 54.44441223 C-51.77462332 49.89352464 -47.08459874 45.40927054 -42.37860107 40.93664551 C-37.57491592 36.34899021 -32.83140831 31.7004388 -28.08203125 27.05664062 C-18.77861553 17.977479 -9.41298422 8.96544503 0 0 Z " fill="#242424" transform="translate(135,52)"/>
<path d="M0 0 C52.8 0 105.6 0 160 0 C160 5.28 160 10.56 160 16 C107.2 16 54.4 16 0 16 C0 10.72 0 5.44 0 0 Z " fill="#F0F8FF" transform="translate(40,192)"/>
<path d="M0 0 C3.19978722 2.53316489 5.72892848 4.77810233 6.23828125 8.953125 C6.41774475 14.50704803 5.73664814 17.60394337 2 22 C-1.46015135 23.73007568 -5.21672555 23.4835273 -9 23 C-12.49890004 20.88608123 -13.70578686 19.88263941 -15 16 C-15.56216437 11.16170012 -15.45721862 7.85347476 -13.125 3.5 C-9.4704743 -0.799442 -5.39540784 -0.85730142 0 0 Z " fill="#2B2B2B" transform="translate(89,228)"/>
<path d="M0 0 C12.52941176 0 12.52941176 0 17 4 C18.84479881 7.68959763 18.34956298 11.96413651 18 16 C16.72731146 19.21521314 15.82675397 20.47388384 12.9375 22.3125 C10 23 10 23 0 23 C0 15.41 0 7.82 0 0 Z " fill="#D8DFE5" transform="translate(100,228)"/>
<path d="M0 0 C3.26104325 2.69036068 3.9034571 4.32419973 4.5 8.5 C3.9034571 12.67580027 3.26104325 14.30963932 0 17 C-2.8266808 17.71246258 -5.17255933 17.70686017 -8 17 C-10.6483191 14.88134472 -11.73807669 13.37782575 -12.375 10.02734375 C-12.57568891 6.67207596 -12.23027695 4.38379492 -10.5 1.5 C-6.97690664 -0.61385602 -4.00332769 -0.9352036 0 0 Z " fill="#E0E8EE" transform="translate(154,234)"/>
<path d="M0 0 C1.86621094 0.22485352 1.86621094 0.22485352 4 1 C5.18847656 2.91772461 5.18847656 2.91772461 6.140625 5.40234375 C6.66269531 6.73749023 6.66269531 6.73749023 7.1953125 8.09960938 C7.54335938 9.03611328 7.89140625 9.97261719 8.25 10.9375 C8.61351563 11.87013672 8.97703125 12.80277344 9.3515625 13.76367188 C12 20.64861372 12 20.64861372 12 23 C10.125 22.8125 10.125 22.8125 8 22 C6.75 19.4375 6.75 19.4375 6 17 C3.03 16.67 0.06 16.34 -3 16 C-3.66 18.31 -4.32 20.62 -5 23 C-5.99 23 -6.98 23 -8 23 C-7.38696372 17.59491957 -5.55619307 13.07560955 -3.4375 8.125 C-3.10814453 7.34125 -2.77878906 6.5575 -2.43945312 5.75 C-1.63203214 3.83091244 -0.81680231 1.9151135 0 0 Z " fill="#DAE1E8" transform="translate(44,228)"/>
<path d="M0 0 C3.19978722 2.53316489 5.72892848 4.77810233 6.23828125 8.953125 C6.41774475 14.50704803 5.73664814 17.60394337 2 22 C-1.46015135 23.73007568 -5.21672555 23.4835273 -9 23 C-12.49890004 20.88608123 -13.70578686 19.88263941 -15 16 C-15.56216437 11.16170012 -15.45721862 7.85347476 -13.125 3.5 C-9.4704743 -0.799442 -5.39540784 -0.85730142 0 0 Z M-11.0625 4.5 C-12.69097875 8.84261001 -12.6918025 13.07283589 -11.125 17.4375 C-10.06925899 19.15893274 -10.06925899 19.15893274 -8 20 C-3.27050934 20.49488192 -3.27050934 20.49488192 0.875 18.625 C3.44248892 14.91640489 3.44193156 11.38465429 3 7 C2.27314412 4.36375359 2.27314412 4.36375359 0 3 C-4.04812934 2.27631207 -7.65669513 2.02305101 -11.0625 4.5 Z " fill="#D9E0E6" transform="translate(89,228)"/>
<path d="M0 0 C8 0 8 0 10.5 1.5 C12.59470675 4.99117791 12.74310088 8.09097973 12 12 C10.5 15 10.5 15 8 17 C5.36 17 2.72 17 0 17 C0 11.39 0 5.78 0 0 Z " fill="#262626" transform="translate(103,231)"/>
<path d="M0 0 C1.9375 1.125 1.9375 1.125 3 3 C3.1875 6.1875 3.1875 6.1875 3 9 C-0.63 9 -4.26 9 -8 9 C-7.34 10.65 -6.68 12.3 -6 14 C-3.03 14 -0.06 14 3 14 C2.67 14.99 2.34 15.98 2 17 C0.5629191 17.05422947 -0.87475462 17.09289723 -2.3125 17.125 C-3.51326172 17.15980469 -3.51326172 17.15980469 -4.73828125 17.1953125 C-7 17 -7 17 -10 15 C-11.23746694 11.28759918 -11.54341681 7.85825935 -11 4 C-8.15614633 -0.55016587 -5.11496172 -0.65099513 0 0 Z " fill="#E0E7EE" transform="translate(184,234)"/>
<path d="M0 0 C11.35368043 -0.36624776 11.35368043 -0.36624776 13.875 1.0625 C15.62336781 4.0735779 15.28209401 6.75058437 15.1875 10.1875 C15.16042969 11.45980469 15.13335937 12.73210937 15.10546875 14.04296875 C15.07066406 15.01878906 15.03585938 15.99460938 15 17 C14.01 17 13.02 17 12 17 C11.67 12.71 11.34 8.42 11 4 C6.52297636 2.93462795 6.52297636 2.93462795 4 3 C3.67 7.62 3.34 12.24 3 17 C2.01 17 1.02 17 0 17 C0 11.39 0 5.78 0 0 Z " fill="#DAE1E8" transform="translate(123,234)"/>
<path d="M0 0 C0.99 0 1.98 0 3 0 C3 6.6 3 13.2 3 20 C6.3 20 9.6 20 13 20 C13 20.99 13 21.98 13 23 C8.71 23 4.42 23 0 23 C0 15.41 0 7.82 0 0 Z " fill="#E0E8EE" transform="translate(59,228)"/>
<path d="M0 0 C1.23556641 0.01740234 1.23556641 0.01740234 2.49609375 0.03515625 C3.32238281 0.04417969 4.14867187 0.05320313 5 0.0625 C5.63808594 0.07410156 6.27617187 0.08570313 6.93359375 0.09765625 C6.60359375 1.08765625 6.27359375 2.07765625 5.93359375 3.09765625 C3.95359375 3.09765625 1.97359375 3.09765625 -0.06640625 3.09765625 C-0.39640625 4.08765625 -0.72640625 5.07765625 -1.06640625 6.09765625 C-0.32390625 6.20078125 0.41859375 6.30390625 1.18359375 6.41015625 C4.10373393 7.14019129 5.66546929 8.16555023 7.93359375 10.09765625 C7.55859375 13.03515625 7.55859375 13.03515625 6.93359375 16.09765625 C4.52813737 17.30038444 2.98362422 17.19837097 0.30859375 17.16015625 C-0.91730469 17.14662109 -0.91730469 17.14662109 -2.16796875 17.1328125 C-2.79445312 17.12121094 -3.4209375 17.10960937 -4.06640625 17.09765625 C-3.57140625 15.61265625 -3.57140625 15.61265625 -3.06640625 14.09765625 C-0.42640625 14.09765625 2.21359375 14.09765625 4.93359375 14.09765625 C4.2235491 10.81908626 4.2235491 10.81908626 0.99609375 9.53515625 C-0.01453125 9.06078125 -1.02515625 8.58640625 -2.06640625 8.09765625 C-2.72640625 7.43765625 -3.38640625 6.77765625 -4.06640625 6.09765625 C-3.34205084 0.15794191 -3.34205084 0.15794191 0 0 Z " fill="#DFE7ED" transform="translate(195.06640625,233.90234375)"/>
<path d="M0 0 C0.66 0.33 1.32 0.66 2 1 C1.67 1.66 1.34 2.32 1 3 C-0.71313862 8.13941587 -0.31627948 12.73488208 1 18 C3.64 18.66 6.28 19.32 9 20 C9 20.66 9 21.32 9 22 C4.90075477 22.32150943 2.65644914 22.41384837 -0.875 20.1875 C-4.3581878 16.6018655 -4.3240924 13.05234865 -4.30078125 8.296875 C-3.8301059 4.70262686 -2.27356963 2.77091299 0 0 Z " fill="#E1E9EF" transform="translate(78,229)"/>
<path d="M0 0 C0.66 0 1.32 0 2 0 C2 1.32 2 2.64 2 4 C3.65 4 5.3 4 7 4 C7 4.66 7 5.32 7 6 C5.35 6 3.7 6 2 6 C2.33 9.96 2.66 13.92 3 18 C4.32 18.33 5.64 18.66 7 19 C7 19.66 7 20.32 7 21 C4.125 21.1875 4.125 21.1875 1 21 C-1.35119399 17.47320901 -1.21443452 15.97120515 -1.125 11.8125 C-1.10695312 10.72582031 -1.08890625 9.63914063 -1.0703125 8.51953125 C-1.04710937 7.68808594 -1.02390625 6.85664063 -1 6 C-1.66 6 -2.32 6 -3 6 C-3 5.34 -3 4.68 -3 4 C-2.34 3.67 -1.68 3.34 -1 3 C-0.67 2.01 -0.34 1.02 0 0 Z " fill="#DEE6EC" transform="translate(163,230)"/>
<path d="M0 0 C0.66 0 1.32 0 2 0 C2 1.32 2 2.64 2 4 C-1.63 4 -5.26 4 -9 4 C-8.34 5.65 -7.68 7.3 -7 9 C-4.03 9 -1.06 9 2 9 C1.67 9.99 1.34 10.98 1 12 C-0.4370809 12.05422947 -1.87475462 12.09289723 -3.3125 12.125 C-4.11300781 12.14820313 -4.91351563 12.17140625 -5.73828125 12.1953125 C-8 12 -8 12 -11 10 C-11.70052461 7.336937 -11.77744818 4.75964263 -12 2 C-9.37684968 0.68842484 -7.76966564 1.10350012 -4.875 1.4375 C-3.96492187 1.53933594 -3.05484375 1.64117187 -2.1171875 1.74609375 C-1.41851562 1.82988281 -0.71984375 1.91367188 0 2 C0 1.34 0 0.68 0 0 Z " fill="#E7EFF6" transform="translate(185,239)"/>
<path d="M0 0 C2.31 0 4.62 0 7 0 C7 0.33 7 0.66 7 1 C5.35 1 3.7 1 2 1 C2 7.27 2 13.54 2 20 C3.98 20 5.96 20 8 20 C7.67 20.66 7.34 21.32 7 22 C4.69 22 2.38 22 0 22 C0 14.74 0 7.48 0 0 Z " fill="#EEF6FD" transform="translate(101,229)"/>
<path d="M0 0 C0.66 0.33 1.32 0.66 2 1 C1.67 1.53625 1.34 2.0725 1 2.625 C-0.25443192 5.6042758 -0.27292239 7.79316197 0 11 C0.99 12.485 0.99 12.485 2 14 C2 14.99 2 15.98 2 17 C-1.16115776 15.63016497 -1.9927092 15.0109362 -4 12 C-4.68085106 4.85106383 -4.68085106 4.85106383 -2 1.5 C-1.34 1.005 -0.68 0.51 0 0 Z " fill="#DEE6EC" transform="translate(146,234)"/>
<path d="M0 0 C0.66 0 1.32 0 2 0 C3.18681726 3.56045177 3.09689832 6.43808337 3.0625 10.1875 C3.05347656 11.45980469 3.04445313 12.73210937 3.03515625 14.04296875 C3.02355469 15.01878906 3.01195313 15.99460938 3 17 C2.01 17 1.02 17 0 17 C0 11.39 0 5.78 0 0 Z " fill="#E2EAF0" transform="translate(123,234)"/>
<path d="M0 0 C1.2065625 0.0309375 1.2065625 0.0309375 2.4375 0.0625 C2.7675 1.7125 3.0975 3.3625 3.4375 5.0625 C0.7975 5.0625 -1.8425 5.0625 -4.5625 5.0625 C-3.43829114 0.08386076 -3.43829114 0.08386076 0 0 Z " fill="#393A3B" transform="translate(180.5625,235.9375)"/>
<path d="M0 0 C2 1 2 1 2.6328125 2.84765625 C2.79523437 3.57855469 2.95765625 4.30945313 3.125 5.0625 C3.29257812 5.79597656 3.46015625 6.52945313 3.6328125 7.28515625 C3.75398438 7.85105469 3.87515625 8.41695312 4 9 C2.02 9 0.04 9 -2 9 C-1.34 6.03 -0.68 3.06 0 0 Z " fill="#383939" transform="translate(45,232)"/>
<path d="M0 0 C1.875 1.25 1.875 1.25 2.875 4.25 C2.215 4.25 1.555 4.25 0.875 4.25 C0.545 4.91 0.215 5.57 -0.125 6.25 C-0.455 4.6 -0.785 2.95 -1.125 1.25 C-2.445 0.92 -3.765 0.59 -5.125 0.25 C-2.125 -0.75 -2.125 -0.75 0 0 Z " fill="#DAE1E7" transform="translate(184.125,234.75)"/>
<path d="M0 0 C-0.33 0.99 -0.66 1.98 -1 3 C-3.31 3 -5.62 3 -8 3 C-8 2.34 -8 1.68 -8 1 C-5.23735711 0.40267181 -2.83967231 0 0 0 Z " fill="#DDE4EB" transform="translate(187,248)"/>
<path d="M0 0 C0.66 0.33 1.32 0.66 2 1 C1.25 2.9375 1.25 2.9375 0 5 C-2.125 5.75 -2.125 5.75 -4 6 C-2.25 1.125 -2.25 1.125 0 0 Z " fill="#D2D9DF" transform="translate(146,234)"/>
</svg>

